<?xml version="1.0" encoding="utf-8"?>
<!-- Generator: Adobe Illustrator 25.4.1, SVG Export Plug-In . SVG Version: 6.00 Build 0)  -->
<svg version="1.1" id="Layer_1" xmlns="http://www.w3.org/2000/svg" xmlns:xlink="http://www.w3.org/1999/xlink" x="0px" y="0px"
	 viewBox="0 0 1080 1080" style="enable-background:new 0 0 1080 1080;" xml:space="preserve">
<style type="text/css">
	.st0{fill:#2C5797;}
	.st1{fill:#2C5797;stroke:#2C5798;stroke-miterlimit:10;}
</style>
<g id="Layer_1_00000088833748124755384170000010618215713295528108_">
	<g>
		<g>
			<g>
				<path class="st0" d="M362.6,499.1c1.7,0,5,0,7.5,2c1.8,1.4,2.8,3.8,2.8,6.4c0,4-2.7,5.6-3.5,6c2,0.3,3.2,1.2,4,2
					c1.8,1.8,2.2,4.2,2.2,5.8c0,1.8-0.5,4.3-2.7,6.2c-2.3,2-5.1,2.5-7.8,2.5h-10.3l0.1-30.8L362.6,499.1z M360.8,525h2.6
					c1.1,0,2.8,0,4.1-0.8c1.5-0.9,1.9-2.3,1.9-3.5c0-1-0.3-2.6-2.2-3.5c-1.3-0.6-2.8-0.6-4.1-0.6h-2.2L360.8,525z M360.9,511.9h1.7
					c0.9,0,4.7-0.1,4.7-4c0-2.8-2.2-3.9-4.6-3.9h-1.8L360.9,511.9z"/>
				<path class="st0" d="M421.4,504.5h-11.1v6.9h10.6v5.2h-10.6v8.4h11.1v5.2l-17.1-0.1l0.1-30.8l17.1,0.1L421.4,504.5z"/>
				<path class="st0" d="M468.4,523.9l-12.4-0.1l-2.8,6.4h-6.5l13.4-30.7h4.7l12.7,30.8H471L468.4,523.9z M466.6,519l-4.3-11.1
					l-4.4,11.1H466.6z"/>
				<path class="st0" d="M525.5,529.5c-1.8,1-4.3,1.8-7.6,1.8c-5.4,0-8.7-1.9-11.2-4.3c-3.5-3.4-4.9-7.3-4.9-11.8
					c0-5.6,2.3-9.6,5-12c3.1-2.9,6.9-4,11.3-4c2.2,0,4.7,0.4,7.6,1.9v7c-2.8-3.2-6.3-3.5-7.4-3.5c-6.2,0-10.2,5-10.2,10.7
					c0,6.8,5.2,10.5,10.4,10.6c2.9,0,5.4-1.2,7.2-3.3L525.5,529.5z"/>
				<path class="st0" d="M560.2,511.9l13,0.1l0.1-11.9h6l-0.1,30.8h-6l0.1-13.7l-13-0.1l-0.1,13.7h-6l0.1-30.8h6L560.2,511.9z"/>
				<path class="st0" d="M669.7,519.8c-1.9,2.3-2.5,2.8-3.3,3.7l-0.7,0.7l6.2,7.1h-7.4l-3-3.5c-1.4,1.3-5,4.1-9.9,4.1
					c-6.3,0-9.6-4.4-9.6-8.9c0-4.6,3.6-6.9,5-7.8l2.4-1.4c-1.1-1.1-3.1-3.5-3.1-6.5c0-3.8,2.8-7.6,8.5-7.6c5.4,0,8.2,3.6,8.2,7.4
					c0,2.2-1.1,4.8-4.4,6.8l-1.3,0.8l5,5.8c2.1-2,3.2-3.4,3.8-4.2L669.7,519.8z M652.4,517.2c-2.4,1.2-4.4,2.9-4.4,5.3
					c0,2.3,1.9,4.1,4.5,4.1c2.5,0,4.7-1.6,5.7-2.6L652.4,517.2z M654.5,511.5l1.4-1c1.7-1.1,2.1-2.4,2.1-3.4c0-1.5-0.9-3-3-3.1
					c-2.2,0-3.1,1.5-3.1,2.8c0,1.2,0.6,2.1,1.3,2.9L654.5,511.5z"/>
				<path class="st0" d="M744.5,531.6H740l-10.6-30.8h6.4l6.8,21l7.6-21.2h3.3l7,21.2l7.5-20.9h6.4l-11.5,30.7h-4.5l-6.6-19.5
					L744.5,531.6z"/>
				<path class="st0" d="M818,506.3h-11.1v6.9h10.6v5.2h-10.6v8.4H818v5.2l-17.1-0.1l0.1-30.8l17.1,0.1L818,506.3z"/>
				<path class="st0" d="M862,508.3c-1.8-2.4-3.9-2.6-5-2.7c-3.2,0-4.3,2-4.3,3.6c0,0.7,0.2,1.4,1,2.1c0.7,0.7,1.7,1.1,3.7,1.8
					c2.4,0.8,4.7,1.7,6.2,3.1c1.4,1.3,2.6,3.3,2.6,6.5c0,6-4.4,10.1-10.7,10.1c-5.7,0-9-3.5-10.6-5.9l3.9-3.7c1.5,3,4.3,4.1,6.4,4.1
					c2.7,0,4.8-1.6,4.8-4.2c0-1.1-0.4-2-1.2-2.8c-1.1-1.1-3-1.7-4.7-2.3c-1.6-0.6-3.5-1.3-5.1-2.7c-1-0.9-2.4-2.6-2.4-5.7
					c0-4.5,3.1-9,9.9-9c1.9,0,5.6,0.4,8.7,3.6L862,508.3z"/>
				<path class="st0" d="M903.8,506.7l-0.1,25.6h-6l0.1-25.6h-6.9v-5.2l19.8,0.1v5.2L903.8,506.7z"/>
			</g>
		</g>
		<g>
			<path class="st1" d="M484.6,551.6v13.5h0.1l7.4-13.5h3.1l-5.1,9.3l6.1,17.3h-3.1l-4.9-14.3h-0.1l-3.5,6.2v8.2h-2.9v-26.5
				L484.6,551.6z"/>
			<path class="st1" d="M514.2,551.6v2.4h-9.3v9h6.8v2.4h-6.8v10.2h9.7v2.4H502v-26.5L514.2,551.6z"/>
			<path class="st1" d="M525.1,551.6v26.5h-2.9v-26.5H525.1z"/>
			<path class="st1" d="M548.2,551.6v13.5h0.1l7.4-13.5h3.1l-5.1,9.3l6.1,17.3h-3.1l-4.9-14.3h-0.1l-3.5,6.2v8.2h-2.9v-26.5
				L548.2,551.6z"/>
			<path class="st1" d="M568.8,551.6v26.5h-2.9v-26.5H568.8z"/>
			<path class="st1" d="M581.7,551.5l4.6,20h0.1l4.5-20h4.6V578h-2.6v-24.3h-0.1l-5.5,24.3h-1.9l-5.5-24.3h-0.1V578h-2.6v-26.5
				H581.7z"/>
			<path class="st1" d="M615.4,551.5h4.9c5.6,0,9,3.1,9,13.3s-3.4,13.3-9,13.3h-4.9V551.5z M618.3,575.6h1.5c4.2,0,6.6-1.8,6.6-10.8
				c0-9.1-2.4-10.8-6.6-10.8h-1.5V575.6z"/>
			<path class="st1" d="M637.5,551.5h4.9c5.6,0,9,3.1,9,13.3s-3.4,13.3-9,13.3h-4.9V551.5z M640.3,575.6h1.5c4.2,0,6.6-1.8,6.6-10.8
				c0-9.1-2.4-10.8-6.6-10.8h-1.5V575.6z"/>
			<path class="st1" d="M669,558.4c-0.2-2.7-1.3-4.8-4.1-4.8c-2.2,0-3.6,1.5-3.6,3.5c0,6,10.6,6.1,10.7,14.6c0,4.2-2.4,6.8-6.8,6.8
				c-4.1,0-6.6-3-6.7-7.5h2.6c0.1,3.1,1.5,5.1,4.4,5.1c2.4,0,3.9-1.5,3.9-4.4c0-6-10.6-6.7-10.7-14.3c0-3.7,2.6-6.2,6.4-6.2
				c3.8,0,6.3,2.6,6.5,7.2L669,558.4z"/>
		</g>
		<g>
			<path class="st1" d="M354.9,551.6h4.6c5.8,0,6.3,3.7,6.3,7.7v10.5c0,4.1-0.6,8.2-6.5,8.2h-4.4V551.6z M357.4,575.9h1.7
				c3.3,0,4.2-1.8,4.2-5.5V559c0-3.2-0.6-5.2-4.1-5.2h-1.7L357.4,575.9z"/>
			<path class="st1" d="M381.7,565.1h-6v10.7h6.8l-0.4,2.3h-8.9v-26.5h8.8v2.3h-6.3v8.9h6V565.1z"/>
			<path class="st1" d="M388.8,578.1v-26.5h3c1.5,5.2,5.3,19.3,5.8,21.6h0.1c-0.1-3.6-0.2-7.4-0.2-11.7v-9.9h2.4v26.5H397
				c-1.5-5.4-5.4-20-6-22.4l0,0c0.2,3.2,0.3,7.6,0.3,12.4v10L388.8,578.1z"/>
			<path class="st1" d="M410.3,553.9H406v-2.3h11.1v2.3h-4.3v24.2h-2.5L410.3,553.9z"/>
			<path class="st1" d="M424.1,569.3l-1.3,8.8h-2.6l4.4-26.5h3.6l4.6,26.5h-2.6l-1.4-8.8H424.1z M428.3,567
				c-1-6.2-1.7-10.7-1.9-13.1h-0.1c-0.1,2-1.1,8.1-1.8,13.1H428.3z"/>
			<path class="st1" d="M439.1,551.6h2.5v24.2h6.7l-0.3,2.3h-8.9L439.1,551.6z"/>
		</g>
		<path class="st1" d="M465.6,548.6v32.7h-2.4v-32.7H465.6z"/>
		<path class="st0" d="M189.5,498.7c4.5,0,13.4,0,20,5.1c4.8,3.6,7.6,9.9,7.6,16.6c0,10.4-7,14.6-9.2,15.8c5.4,0.8,8.6,3.1,10.7,5.1
			c4.9,4.6,5.9,10.8,5.9,15.1c0,4.7-1.3,11.3-7,16.3c-6.1,5.3-13.6,6.5-20.7,6.5h-27.4v-80.4L189.5,498.7L189.5,498.7z M185.2,532.1
			h4.5c2.5,0,12.4-0.2,12.4-10.5c0-7.3-5.8-10.1-12.3-10.1h-4.7v20.6H185.2z M185.2,566.3h6.9c2.9,0,7.4-0.1,10.9-2.2
			c3.9-2.3,5-6.1,5-9.3c0-2.5-0.9-6.9-6-9.2c-3.4-1.6-7.5-1.6-10.9-1.6h-5.9V566.3z"/>
		<g>
			<polygon class="st0" points="298.1,498.7 266.2,498.7 281.7,553.4 			"/>
			<polygon class="st0" points="258.4,498.7 226.7,498.7 241.9,553.4 			"/>
			<polygon class="st0" points="246.3,579.1 276.9,579.1 262,528.1 			"/>
			<polygon class="st0" points="287,579.1 312.2,579.1 312.2,498.7 			"/>
		</g>
	</g>
</g>
</svg>
