<?xml version="1.0" encoding="utf-8"?>
<!-- Generator: Adobe Illustrator 25.4.1, SVG Export Plug-In . SVG Version: 6.00 Build 0)  -->
<svg version="1.1" xmlns="http://www.w3.org/2000/svg" xmlns:xlink="http://www.w3.org/1999/xlink" x="0px" y="0px"
	 viewBox="0 0 1080 1080" style="enable-background:new 0 0 1080 1080;" xml:space="preserve">
<style type="text/css">
	.st0{fill:#2C5797;}
	.st1{fill:#ECEAD3;}
	.st2{fill:#2C5797;stroke:#2C5798;stroke-miterlimit:10;}
	.st3{fill:#ECEAD3;stroke:#ECEAD3;stroke-width:0.5;stroke-miterlimit:10;}
</style>
<g id="Layer_2">
	<rect class="st1" width="1080" height="1080"/>
</g>
<g id="Layer_1">
	<g>
		<g>
			<g>
				<path class="st0" d="M362.6,499.1c1.7,0,5,0,7.5,2c1.8,1.4,2.8,3.8,2.8,6.4c0,4-2.7,5.6-3.5,6c2,0.3,3.2,1.2,4,2
					c1.8,1.8,2.2,4.2,2.2,5.8c0,1.8-0.5,4.3-2.7,6.2c-2.3,2-5.1,2.5-7.8,2.5l-10.3,0l0.1-30.8L362.6,499.1z M360.8,525l2.6,0
					c1.1,0,2.8,0,4.1-0.8c1.5-0.9,1.9-2.3,1.9-3.5c0-1-0.3-2.6-2.2-3.5c-1.3-0.6-2.8-0.6-4.1-0.6l-2.2,0L360.8,525z M360.9,511.9
					l1.7,0c0.9,0,4.7-0.1,4.7-4c0-2.8-2.2-3.9-4.6-3.9l-1.8,0L360.9,511.9z"/>
				<path class="st0" d="M421.4,504.5l-11.1,0l0,6.9l10.6,0l0,5.2l-10.6,0l0,8.4l11.1,0l0,5.2l-17.1-0.1l0.1-30.8l17.1,0.1
					L421.4,504.5z"/>
				<path class="st0" d="M468.4,523.9l-12.4-0.1l-2.8,6.4l-6.5,0l13.4-30.7l4.7,0l12.7,30.8l-6.5,0L468.4,523.9z M466.6,519
					l-4.3-11.1l-4.4,11.1L466.6,519z"/>
				<path class="st0" d="M525.5,529.5c-1.8,1-4.3,1.8-7.6,1.8c-5.4,0-8.7-1.9-11.2-4.3c-3.5-3.4-4.9-7.3-4.9-11.8
					c0-5.6,2.3-9.6,5-12c3.1-2.9,6.9-4,11.3-4c2.2,0,4.7,0.4,7.6,1.9l0,7c-2.8-3.2-6.3-3.5-7.4-3.5c-6.2,0-10.2,5-10.2,10.7
					c0,6.8,5.2,10.5,10.4,10.6c2.9,0,5.4-1.2,7.2-3.3L525.5,529.5z"/>
				<path class="st0" d="M560.2,511.9l13,0.1l0.1-11.9l6,0l-0.1,30.8l-6,0l0.1-13.7l-13-0.1l-0.1,13.7l-6,0l0.1-30.8l6,0
					L560.2,511.9z"/>
				<path class="st0" d="M669.7,519.8c-1.9,2.3-2.5,2.8-3.3,3.7l-0.7,0.7l6.2,7.1l-7.4,0l-3-3.5c-1.4,1.3-5,4.1-9.9,4.1
					c-6.3,0-9.6-4.4-9.6-8.9c0-4.6,3.6-6.9,5-7.8l2.4-1.4c-1.1-1.1-3.1-3.5-3.1-6.5c0-3.8,2.8-7.6,8.5-7.6c5.4,0,8.2,3.6,8.2,7.4
					c0,2.2-1.1,4.8-4.4,6.8l-1.3,0.8l5,5.8c2.1-2,3.2-3.4,3.8-4.2L669.7,519.8z M652.4,517.2c-2.4,1.2-4.4,2.9-4.4,5.3
					c0,2.3,1.9,4.1,4.5,4.1c2.5,0,4.7-1.6,5.7-2.6L652.4,517.2z M654.5,511.5l1.4-1c1.7-1.1,2.1-2.4,2.1-3.4c0-1.5-0.9-3-3-3.1
					c-2.2,0-3.1,1.5-3.1,2.8c0,1.2,0.6,2.1,1.3,2.9L654.5,511.5z"/>
				<path class="st0" d="M744.5,531.6l-4.5,0l-10.6-30.8l6.4,0l6.8,21l7.6-21.2l3.3,0l7,21.2l7.5-20.9l6.4,0l-11.5,30.7l-4.5,0
					l-6.6-19.5L744.5,531.6z"/>
				<path class="st0" d="M818,506.3l-11.1,0l0,6.9l10.6,0l0,5.2l-10.6,0l0,8.4l11.1,0l0,5.2l-17.1-0.1l0.1-30.8l17.1,0.1L818,506.3z
					"/>
				<path class="st0" d="M862,508.3c-1.8-2.4-3.9-2.6-5-2.7c-3.2,0-4.3,2-4.3,3.6c0,0.7,0.2,1.4,1,2.1c0.7,0.7,1.7,1.1,3.7,1.8
					c2.4,0.8,4.7,1.7,6.2,3.1c1.4,1.3,2.6,3.3,2.6,6.5c0,6-4.4,10.1-10.7,10.1c-5.7,0-9-3.5-10.6-5.9l3.9-3.7c1.5,3,4.3,4.1,6.4,4.1
					c2.7,0,4.8-1.6,4.8-4.2c0-1.1-0.4-2-1.2-2.8c-1.1-1.1-3-1.7-4.7-2.3c-1.6-0.6-3.5-1.3-5.1-2.7c-1-0.9-2.4-2.6-2.4-5.7
					c0-4.5,3.1-9,9.9-9c1.9,0,5.6,0.4,8.7,3.6L862,508.3z"/>
				<path class="st0" d="M903.8,506.7l-0.1,25.6l-6,0l0.1-25.6l-6.9,0l0-5.2l19.8,0.1l0,5.2L903.8,506.7z"/>
			</g>
		</g>
		<g>
			<path class="st2" d="M484.6,551.6l0,13.5h0.1l7.4-13.5l3.1,0l-5.1,9.3l6.1,17.3l-3.1,0l-4.9-14.3h-0.1l-3.5,6.2l0,8.2l-2.9,0
				l0-26.5L484.6,551.6z"/>
			<path class="st2" d="M514.2,551.6l0,2.4l-9.3,0l0,9l6.8,0l0,2.4l-6.8,0l0,10.2l9.7,0l0,2.4l-12.6,0l0-26.5L514.2,551.6z"/>
			<path class="st2" d="M525.1,551.6l0,26.5l-2.9,0l0-26.5L525.1,551.6z"/>
			<path class="st2" d="M548.2,551.6l0,13.5l0.1,0l7.4-13.5l3.1,0l-5.1,9.3l6.1,17.3l-3.1,0l-4.9-14.3l-0.1,0l-3.5,6.2l0,8.2l-2.9,0
				l0-26.5L548.2,551.6z"/>
			<path class="st2" d="M568.8,551.6l0,26.5l-2.9,0l0-26.5L568.8,551.6z"/>
			<path class="st2" d="M581.7,551.5l4.6,20h0.1l4.5-20l4.6,0l0,26.5l-2.6,0l0-24.3h-0.1l-5.5,24.3l-1.9,0l-5.5-24.3l-0.1,0l0,24.3
				l-2.6,0l0-26.5L581.7,551.5z"/>
			<path class="st2" d="M615.4,551.5l4.9,0c5.6,0,9,3.1,9,13.3c0,10.2-3.4,13.3-9,13.3l-4.9,0L615.4,551.5z M618.3,575.6l1.5,0
				c4.2,0,6.6-1.8,6.6-10.8c0-9.1-2.4-10.8-6.6-10.8l-1.5,0L618.3,575.6z"/>
			<path class="st2" d="M637.5,551.5l4.9,0c5.6,0,9,3.1,9,13.3c0,10.2-3.4,13.3-9,13.3l-4.9,0L637.5,551.5z M640.3,575.6l1.5,0
				c4.2,0,6.6-1.8,6.6-10.8c0-9.1-2.4-10.8-6.6-10.8l-1.5,0L640.3,575.6z"/>
			<path class="st2" d="M669,558.4c-0.2-2.7-1.3-4.8-4.1-4.8c-2.2,0-3.6,1.5-3.6,3.5c0,6,10.6,6.1,10.7,14.6c0,4.2-2.4,6.8-6.8,6.8
				c-4.1,0-6.6-3-6.7-7.5l2.6,0c0.1,3.1,1.5,5.1,4.4,5.1c2.4,0,3.9-1.5,3.9-4.4c0-6-10.6-6.7-10.7-14.3c0-3.7,2.6-6.2,6.4-6.2
				c3.8,0,6.3,2.6,6.5,7.2L669,558.4z"/>
		</g>
		<g>
			<path class="st2" d="M354.9,551.6l4.6,0c5.8,0,6.3,3.7,6.3,7.7l0,10.5c0,4.1-0.6,8.2-6.5,8.2l-4.4,0L354.9,551.6z M357.4,575.9
				l1.7,0c3.3,0,4.2-1.8,4.2-5.5l0-11.4c0-3.2-0.6-5.2-4.1-5.2l-1.7,0L357.4,575.9z"/>
			<path class="st2" d="M381.7,565.1l-6,0l0,10.7l6.8,0l-0.4,2.3l-8.9,0l0-26.5l8.8,0l0,2.3l-6.3,0l0,8.9l6,0L381.7,565.1z"/>
			<path class="st2" d="M388.8,578.1l0-26.5l3,0c1.5,5.2,5.3,19.3,5.8,21.6h0.1c-0.1-3.6-0.2-7.4-0.2-11.7l0-9.9l2.4,0l0,26.5
				l-2.9,0c-1.5-5.4-5.4-20-6-22.4h0c0.2,3.2,0.3,7.6,0.3,12.4l0,10L388.8,578.1z"/>
			<path class="st2" d="M410.3,553.9l-4.3,0l0-2.3l11.1,0l0,2.3l-4.3,0l0,24.2l-2.5,0L410.3,553.9z"/>
			<path class="st2" d="M424.1,569.3l-1.3,8.8l-2.6,0l4.4-26.5l3.6,0l4.6,26.5l-2.6,0l-1.4-8.8L424.1,569.3z M428.3,567
				c-1-6.2-1.7-10.7-1.9-13.1h-0.1c-0.1,2-1.1,8.1-1.8,13.1L428.3,567z"/>
			<path class="st2" d="M439.1,551.6l2.5,0l0,24.2l6.7,0l-0.3,2.3l-8.9,0L439.1,551.6z"/>
		</g>
		<path class="st2" d="M465.6,548.6l0,32.7l-2.4,0l0-32.7L465.6,548.6z"/>
		<path class="st0" d="M189.5,498.7c4.5,0,13.4,0,20,5.1c4.8,3.6,7.6,9.9,7.6,16.6c0,10.4-7,14.6-9.2,15.8c5.4,0.8,8.6,3.1,10.7,5.1
			c4.9,4.6,5.9,10.8,5.9,15.1c0,4.7-1.3,11.3-7,16.3c-6.1,5.3-13.6,6.5-20.7,6.5h-27.4v-80.4H189.5z M185.2,532.1h4.5
			c2.5,0,12.4-0.2,12.4-10.5c0-7.3-5.8-10.1-12.3-10.1h-4.7V532.1z M185.2,566.3h6.9c2.9,0,7.4-0.1,10.9-2.2c3.9-2.3,5-6.1,5-9.3
			c0-2.5-0.9-6.9-6-9.2c-3.4-1.6-7.5-1.6-10.9-1.6h-5.9V566.3z"/>
		<g>
			<polygon class="st0" points="298.1,498.7 266.2,498.7 281.7,553.4 			"/>
			<polygon class="st0" points="258.4,498.7 226.7,498.7 241.9,553.4 			"/>
			<polygon class="st0" points="246.3,579.1 276.9,579.1 262,528.1 			"/>
			<polygon class="st0" points="287,579.1 312.2,579.1 312.2,498.7 			"/>
		</g>
	</g>
</g>
</svg>
