<?xml version="1.0" encoding="utf-8"?>
<!-- Generator: Adobe Illustrator 25.4.1, SVG Export Plug-In . SVG Version: 6.00 Build 0)  -->
<svg version="1.1" id="Layer_1" xmlns="http://www.w3.org/2000/svg" xmlns:xlink="http://www.w3.org/1999/xlink" x="0px" y="0px"
	 viewBox="0 0 759.5 110.8" style="enable-background:new 0 0 759.5 110.8;" xml:space="preserve">
<style type="text/css">
	.st0{fill:#2C5797;}
	.st1{fill:#2C5797;stroke:#2C5798;stroke-miterlimit:10;}
</style>
<g id="Layer_1_00000088833748124755384170000010618215713295528108_">
	<g>
		<g>
			<g>
				<path class="st0" d="M202.3,14.5c1.7,0,5,0,7.5,2c1.8,1.4,2.8,3.8,2.8,6.4c0,4-2.7,5.6-3.5,6c2,0.3,3.2,1.2,4,2
					c1.8,1.8,2.2,4.2,2.2,5.8c0,1.8-0.5,4.3-2.7,6.2c-2.3,2-5.1,2.5-7.8,2.5h-10.3l0.1-30.8L202.3,14.5z M200.5,40.4h2.6
					c1.1,0,2.8,0,4.1-0.8c1.5-0.9,1.9-2.3,1.9-3.5c0-1-0.3-2.6-2.2-3.5c-1.3-0.6-2.8-0.6-4.1-0.6h-2.2L200.5,40.4z M200.6,27.3h1.7
					c0.9,0,4.7-0.1,4.7-4c0-2.8-2.2-3.9-4.6-3.9h-1.8L200.6,27.3z"/>
				<path class="st0" d="M261.1,19.9H250v6.9h10.6V32H250v8.4h11.1v5.2L244,45.5l0.1-30.8l17.1,0.1L261.1,19.9z"/>
				<path class="st0" d="M308.1,39.3l-12.4-0.1l-2.8,6.4h-6.5l13.4-30.7h4.7l12.7,30.8h-6.5L308.1,39.3z M306.3,34.4L302,23.3
					l-4.4,11.1H306.3z"/>
				<path class="st0" d="M365.2,44.9c-1.8,1-4.3,1.8-7.6,1.8c-5.4,0-8.7-1.9-11.2-4.3c-3.5-3.4-4.9-7.3-4.9-11.8c0-5.6,2.3-9.6,5-12
					c3.1-2.9,6.9-4,11.3-4c2.2,0,4.7,0.4,7.6,1.9v7c-2.8-3.2-6.3-3.5-7.4-3.5c-6.2,0-10.2,5-10.2,10.7c0,6.8,5.2,10.5,10.4,10.6
					c2.9,0,5.4-1.2,7.2-3.3L365.2,44.9z"/>
				<path class="st0" d="M399.9,27.3l13,0.1l0.1-11.9h6l-0.1,30.8h-6l0.1-13.7l-13-0.1l-0.1,13.7h-6l0.1-30.8h6L399.9,27.3z"/>
				<path class="st0" d="M509.4,35.2c-1.9,2.3-2.5,2.8-3.3,3.7l-0.7,0.7l6.2,7.1h-7.4l-3-3.5c-1.4,1.3-5,4.1-9.9,4.1
					c-6.3,0-9.6-4.4-9.6-8.9c0-4.6,3.6-6.9,5-7.8l2.4-1.4c-1.1-1.1-3.1-3.5-3.1-6.5c0-3.8,2.8-7.6,8.5-7.6c5.4,0,8.2,3.6,8.2,7.4
					c0,2.2-1.1,4.8-4.4,6.8l-1.3,0.8l5,5.8c2.1-2,3.2-3.4,3.8-4.2L509.4,35.2z M492.1,32.6c-2.4,1.2-4.4,2.9-4.4,5.3
					c0,2.3,1.9,4.1,4.5,4.1c2.5,0,4.7-1.6,5.7-2.6L492.1,32.6z M494.2,26.9l1.4-1c1.7-1.1,2.1-2.4,2.1-3.4c0-1.5-0.9-3-3-3.1
					c-2.2,0-3.1,1.5-3.1,2.8c0,1.2,0.6,2.1,1.3,2.9L494.2,26.9z"/>
				<path class="st0" d="M584.2,47h-4.5l-10.6-30.8h6.4l6.8,21l7.6-21.2h3.3l7,21.2l7.5-20.9h6.4L602.6,47h-4.5l-6.6-19.5L584.2,47z
					"/>
				<path class="st0" d="M657.7,21.7h-11.1v6.9h10.6v5.2h-10.6v8.4h11.1v5.2l-17.1-0.1l0.1-30.8l17.1,0.1L657.7,21.7z"/>
				<path class="st0" d="M701.7,23.7c-1.8-2.4-3.9-2.6-5-2.7c-3.2,0-4.3,2-4.3,3.6c0,0.7,0.2,1.4,1,2.1c0.7,0.7,1.7,1.1,3.7,1.8
					c2.4,0.8,4.7,1.7,6.2,3.1c1.4,1.3,2.6,3.3,2.6,6.5c0,6-4.4,10.1-10.7,10.1c-5.7,0-9-3.5-10.6-5.9l3.9-3.7c1.5,3,4.3,4.1,6.4,4.1
					c2.7,0,4.8-1.6,4.8-4.2c0-1.1-0.4-2-1.2-2.8c-1.1-1.1-3-1.7-4.7-2.3c-1.6-0.6-3.5-1.3-5.1-2.7c-1-0.9-2.4-2.6-2.4-5.7
					c0-4.5,3.1-9,9.9-9c1.9,0,5.6,0.4,8.7,3.6L701.7,23.7z"/>
				<path class="st0" d="M743.5,22.1l-0.1,25.6h-6l0.1-25.6h-6.9v-5.2l19.8,0.1v5.2L743.5,22.1z"/>
			</g>
		</g>
		<g>
			<path class="st1" d="M324.3,67v13.5h0.1l7.4-13.5h3.1l-5.1,9.3l6.1,17.3h-3.1l-4.9-14.3h-0.1l-3.5,6.2v8.2h-2.9V67.2L324.3,67z"
				/>
			<path class="st1" d="M353.9,67v2.4h-9.3v9h6.8v2.4h-6.8V91h9.7v2.4h-12.6V66.9L353.9,67z"/>
			<path class="st1" d="M364.8,67v26.5h-2.9V67H364.8z"/>
			<path class="st1" d="M387.9,67v13.5h0.1l7.4-13.5h3.1l-5.1,9.3l6.1,17.3h-3.1l-4.9-14.3h-0.1l-3.5,6.2v8.2H385V67.2L387.9,67z"/>
			<path class="st1" d="M408.5,67v26.5h-2.9V67H408.5z"/>
			<path class="st1" d="M421.4,66.9l4.6,20h0.1l4.5-20h4.6v26.5h-2.6V69.1h-0.1L427,93.4h-1.9l-5.5-24.3h-0.1v24.3h-2.6V66.9H421.4z
				"/>
			<path class="st1" d="M455.1,66.9h4.9c5.6,0,9,3.1,9,13.3s-3.4,13.3-9,13.3h-4.9V66.9z M458,91h1.5c4.2,0,6.6-1.8,6.6-10.8
				c0-9.1-2.4-10.8-6.6-10.8H458V91z"/>
			<path class="st1" d="M477.2,66.9h4.9c5.6,0,9,3.1,9,13.3s-3.4,13.3-9,13.3h-4.9V66.9z M480,91h1.5c4.2,0,6.6-1.8,6.6-10.8
				c0-9.1-2.4-10.8-6.6-10.8H480V91z"/>
			<path class="st1" d="M508.7,73.8c-0.2-2.7-1.3-4.8-4.1-4.8c-2.2,0-3.6,1.5-3.6,3.5c0,6,10.6,6.1,10.7,14.6c0,4.2-2.4,6.8-6.8,6.8
				c-4.1,0-6.6-3-6.7-7.5h2.6c0.1,3.1,1.5,5.1,4.4,5.1c2.4,0,3.9-1.5,3.9-4.4c0-6-10.6-6.7-10.7-14.3c0-3.7,2.6-6.2,6.4-6.2
				c3.8,0,6.3,2.6,6.5,7.2L508.7,73.8z"/>
		</g>
		<g>
			<path class="st1" d="M194.6,67h4.6c5.8,0,6.3,3.7,6.3,7.7v10.5c0,4.1-0.6,8.2-6.5,8.2h-4.4V67z M197.1,91.3h1.7
				c3.3,0,4.2-1.8,4.2-5.5V74.4c0-3.2-0.6-5.2-4.1-5.2h-1.7L197.1,91.3z"/>
			<path class="st1" d="M221.4,80.5h-6v10.7h6.8l-0.4,2.3h-8.9V67h8.8v2.3h-6.3v8.9h6V80.5z"/>
			<path class="st1" d="M228.5,93.5V67h3c1.5,5.2,5.3,19.3,5.8,21.6h0.1c-0.1-3.6-0.2-7.4-0.2-11.7V67h2.4v26.5h-2.9
				c-1.5-5.4-5.4-20-6-22.4l0,0c0.2,3.2,0.3,7.6,0.3,12.4v10L228.5,93.5z"/>
			<path class="st1" d="M250,69.3h-4.3V67h11.1v2.3h-4.3v24.2H250L250,69.3z"/>
			<path class="st1" d="M263.8,84.7l-1.3,8.8h-2.6l4.4-26.5h3.6l4.6,26.5h-2.6l-1.4-8.8H263.8z M268,82.4c-1-6.2-1.7-10.7-1.9-13.1
				H266c-0.1,2-1.1,8.1-1.8,13.1H268z"/>
			<path class="st1" d="M278.8,67h2.5v24.2h6.7l-0.3,2.3h-8.9L278.8,67z"/>
		</g>
		<path class="st1" d="M305.3,64v32.7h-2.4V64H305.3z"/>
		<path class="st0" d="M29.2,14.1c4.5,0,13.4,0,20,5.1c4.8,3.6,7.6,9.9,7.6,16.6c0,10.4-7,14.6-9.2,15.8c5.4,0.8,8.6,3.1,10.7,5.1
			c4.9,4.6,5.9,10.8,5.9,15.1c0,4.7-1.3,11.3-7,16.3c-6.1,5.3-13.6,6.5-20.7,6.5H9.1V14.2L29.2,14.1L29.2,14.1z M24.9,47.5h4.5
			c2.5,0,12.4-0.2,12.4-10.5c0-7.3-5.8-10.1-12.3-10.1h-4.7v20.6H24.9z M24.9,81.7h6.9c2.9,0,7.4-0.1,10.9-2.2c3.9-2.3,5-6.1,5-9.3
			c0-2.5-0.9-6.9-6-9.2c-3.4-1.6-7.5-1.6-10.9-1.6h-5.9V81.7z"/>
		<g>
			<polygon class="st0" points="137.8,14.1 105.9,14.1 121.4,68.8 			"/>
			<polygon class="st0" points="98.1,14.1 66.4,14.1 81.6,68.8 			"/>
			<polygon class="st0" points="86,94.5 116.6,94.5 101.7,43.5 			"/>
			<polygon class="st0" points="126.7,94.5 151.9,94.5 151.9,14.1 			"/>
		</g>
	</g>
</g>
</svg>
